<?xml version="1.0" standalone="no"?>
<!DOCTYPE svg PUBLIC "-//W3C//DTD SVG 20010904//EN"
 "http://www.w3.org/TR/2001/REC-SVG-20010904/DTD/svg10.dtd">
<svg version="1.0" xmlns="http://www.w3.org/2000/svg"
 width="512.000000pt" height="512.000000pt" viewBox="0 0 512.000000 512.000000"
 preserveAspectRatio="xMidYMid meet">

<g transform="translate(0.000000,512.000000) scale(0.100000,-0.100000)"
fill="#000000" stroke="none">
<path d="M2330 5110 c-494 -48 -950 -230 -1350 -538 -195 -150 -448 -432 -594
-662 -63 -99 -186 -351 -230 -471 -49 -134 -102 -340 -128 -499 -31 -195 -31
-565 0 -760 45 -276 116 -498 237 -745 132 -269 269 -460 489 -681 221 -220
412 -357 681 -489 247 -121 469 -192 745 -237 195 -31 565 -31 760 0 276 45
498 116 745 237 269 132 460 269 681 489 220 221 357 412 489 681 88 179 132
296 180 476 63 240 78 371 78 649 0 278 -15 409 -78 649 -48 180 -92 297 -180
476 -132 269 -269 460 -489 681 -221 220 -412 357 -681 489 -246 121 -474 193
-740 235 -147 23 -475 34 -615 20z m435 -756 c497 -86 894 -471 995 -964 27
-129 29 -332 6 -461 -58 -322 -258 -624 -533 -805 -604 -398 -1418 -188 -1755
453 -99 187 -139 353 -140 573 0 327 119 618 350 854 173 177 414 306 657 349
109 20 309 21 420 1z m150 -2670 c393 -43 795 -155 1205 -336 74 -33 137 -61
139 -64 8 -7 -115 -151 -206 -241 -313 -309 -695 -505 -1153 -590 -136 -25
-544 -25 -680 0 -458 85 -840 281 -1153 590 -91 90 -214 234 -206 241 11 11
292 130 409 174 575 212 1100 284 1645 226z"/>
</g>
</svg>
