<?xml version="1.0" standalone="no"?>
<!DOCTYPE svg PUBLIC "-//W3C//DTD SVG 20010904//EN"
 "http://www.w3.org/TR/2001/REC-SVG-20010904/DTD/svg10.dtd">
<svg version="1.0" xmlns="http://www.w3.org/2000/svg"
 width="512.000000pt" height="512.000000pt" viewBox="0 0 512.000000 512.000000"
 preserveAspectRatio="xMidYMid meet">

<g transform="translate(0.000000,512.000000) scale(0.100000,-0.100000)"
fill="#000000" stroke="none">
<path d="M213 5009 c-70 -27 -145 -100 -180 -174 l-28 -60 0 -1705 0 -1705 22
-47 c30 -66 105 -143 172 -175 l56 -28 892 -3 893 -2 0 -43 c-1 -134 -65 -292
-151 -371 -83 -77 -119 -87 -329 -95 -169 -7 -177 -8 -229 -36 -87 -48 -133
-126 -133 -225 0 -31 7 -74 16 -95 22 -52 80 -112 131 -136 38 -18 91 -19
1215 -19 1124 0 1177 1 1215 19 51 24 109 84 131 136 9 21 16 64 16 95 0 99
-46 177 -133 225 -52 28 -60 29 -229 36 -210 8 -246 18 -329 95 -86 79 -150
237 -151 371 l0 43 893 2 892 3 56 28 c67 32 142 109 172 175 l22 47 0 1705 0
1705 -33 67 c-39 80 -102 139 -178 168 -54 20 -66 20 -2347 19 -2265 0 -2293
0 -2344 -20z m4666 -178 c18 -13 42 -42 52 -65 18 -39 19 -97 19 -1423 l0
-1383 -85 0 -85 0 0 1330 c0 1418 1 1376 -45 1394 -22 8 -4328 8 -4350 0 -46
-18 -45 24 -45 -1394 l0 -1330 -85 0 -85 0 0 1383 c0 1326 1 1384 19 1423 17
38 54 73 91 87 8 3 1039 5 2290 4 l2275 -2 34 -24z m-269 -1586 l0 -1275
-2050 0 -2050 0 0 1275 0 1275 2050 0 2050 0 0 -1275z m340 -1640 c0 -203 -5
-229 -56 -277 -16 -15 -42 -32 -57 -37 -20 -8 -713 -11 -2278 -11 -2449 0
-2285 -4 -2341 56 -43 47 -48 74 -48 270 l0 184 2390 0 2390 0 0 -185z m-2046
-517 c2 -13 9 -60 16 -105 18 -131 75 -280 135 -352 l27 -31 -522 0 -522 0 27
31 c60 72 117 221 135 352 7 45 14 92 16 105 l4 22 340 0 340 0 4 -22z m794
-668 c6 0 21 -9 32 -20 28 -28 27 -87 -2 -117 l-21 -23 -1146 0 -1145 0 -23
22 c-40 37 -30 112 17 132 20 8 329 10 1151 9 618 -1 1130 -2 1137 -3z"/>
<path d="M1800 4004 c-404 -190 -744 -354 -755 -365 -25 -25 -25 -83 0 -109
11 -11 106 -60 210 -109 l190 -89 5 -320 c4 -224 9 -323 17 -333 6 -8 255
-135 552 -284 l541 -269 541 269 c298 149 547 279 555 290 11 16 14 80 14 331
l0 312 107 52 c59 28 117 53 130 56 l23 6 0 -295 0 -295 -85 -129 c-66 -100
-85 -136 -85 -164 0 -47 33 -79 81 -79 41 0 63 21 129 118 l42 64 53 -79 c71
-106 86 -116 147 -100 27 7 58 50 58 81 0 8 -38 72 -85 143 l-85 128 0 387 0
387 -22 25 c-28 31 -1481 716 -1518 716 -14 0 -356 -156 -760 -346z m1255 -65
c270 -127 508 -239 530 -249 39 -18 32 -19 -447 -19 l-488 -1 0 43 c0 55 -28
109 -62 121 -41 14 -80 -3 -101 -44 -16 -31 -17 -58 -15 -223 l3 -189 28 -24
c35 -30 78 -31 112 -1 22 18 27 34 32 85 l6 62 485 0 c267 0 483 -2 481 -3 -2
-2 -241 -115 -531 -252 l-527 -247 -448 211 c-247 115 -524 245 -617 288 -93
43 -169 82 -170 86 -1 7 1219 586 1234 587 3 0 226 -104 495 -231z m-1002
-895 l417 -197 0 -101 c0 -76 4 -110 18 -136 33 -66 111 -66 144 0 14 26 18
60 18 136 l0 101 418 196 c230 109 421 197 425 197 4 0 7 -102 7 -228 l0 -227
-470 -235 -470 -235 -470 235 -470 235 0 227 c0 126 3 228 8 228 4 0 195 -88
425 -196z"/>
<path d="M2245 1595 c-27 -27 -33 -79 -12 -106 28 -36 51 -39 327 -39 276 0
299 3 327 39 21 27 15 79 -12 106 l-24 25 -291 0 -291 0 -24 -25z"/>
</g>
</svg>
