<?xml version="1.0" standalone="no"?>
<!DOCTYPE svg PUBLIC "-//W3C//DTD SVG 20010904//EN"
 "http://www.w3.org/TR/2001/REC-SVG-20010904/DTD/svg10.dtd">
<svg version="1.0" xmlns="http://www.w3.org/2000/svg"
 width="512.000000pt" height="512.000000pt" viewBox="0 0 512.000000 512.000000"
 preserveAspectRatio="xMidYMid meet">

<g transform="translate(0.000000,512.000000) scale(0.100000,-0.100000)"
fill="#000000" stroke="none">
<path d="M132 4349 c-45 -13 -109 -79 -122 -127 -7 -28 -9 -545 -8 -1684 l3
-1643 24 -38 c13 -21 42 -50 64 -65 l41 -27 2400 -3 c1766 -2 2411 0 2440 8
57 17 93 47 121 104 28 57 31 96 11 152 -8 22 -174 375 -369 787 l-356 747
356 748 c195 411 361 764 369 786 20 56 17 95 -11 152 -27 54 -60 84 -114 102
-43 15 -4797 16 -4849 1z m4468 -393 c0 -2 -140 -298 -311 -657 -171 -360
-315 -673 -322 -696 -8 -32 -8 -54 0 -85 7 -24 151 -337 322 -697 171 -359
311 -655 311 -657 0 -2 -945 -4 -2100 -4 l-2100 0 0 1400 0 1400 2100 0 c1155
0 2100 -2 2100 -4z"/>
<path d="M1163 3270 c-17 -10 -37 -28 -42 -39 -14 -26 -15 -1299 -1 -1335 5
-14 24 -33 42 -43 30 -16 70 -18 420 -21 272 -2 394 0 408 8 35 19 60 70 60
123 0 51 -19 109 -41 123 -8 5 -142 11 -299 14 l-285 5 -3 167 -2 166 169 4
c191 3 201 7 219 79 12 49 1 103 -29 135 -21 23 -28 24 -188 26 l-166 3 -3
168 -2 167 278 0 c304 0 306 0 337 60 31 59 11 175 -33 199 -14 7 -151 11
-414 11 -372 0 -395 -1 -425 -20z"/>
<path d="M2260 3279 c-14 -5 -35 -20 -47 -31 l-23 -21 0 -664 0 -664 24 -23
c53 -54 206 -54 260 1 l26 25 2 348 3 348 188 -342 c196 -357 206 -374 247
-399 67 -41 201 -28 245 24 l25 31 0 652 c0 723 4 682 -67 711 -72 30 -209 9
-233 -36 -6 -10 -10 -160 -10 -365 0 -198 -4 -344 -9 -338 -4 5 -81 148 -170
318 -89 170 -174 327 -189 349 -46 68 -72 82 -165 84 -45 2 -93 -2 -107 -8z"/>
</g>
</svg>
