<?xml version="1.0" standalone="no"?>
<!DOCTYPE svg PUBLIC "-//W3C//DTD SVG 20010904//EN"
 "http://www.w3.org/TR/2001/REC-SVG-20010904/DTD/svg10.dtd">
<svg version="1.0" xmlns="http://www.w3.org/2000/svg"
 width="512.000000pt" height="512.000000pt" viewBox="0 0 512.000000 512.000000"
 preserveAspectRatio="xMidYMid meet">
<metadata>
Created by potrace 1.16, written by Peter Selinger 2001-2019
</metadata>
<g transform="translate(0.000000,512.000000) scale(0.100000,-0.100000)"
fill="#000000" stroke="none">
<path d="M289 4887 c-119 -41 -199 -112 -253 -226 -29 -62 -31 -73 -31 -181 0
-108 2 -119 31 -181 37 -77 86 -135 152 -179 50 -33 157 -70 203 -70 l29 0 0
-1242 c0 -1378 -3 -1305 66 -1401 38 -52 107 -101 164 -117 22 -6 371 -10 918
-10 l882 0 0 -235 0 -235 -464 -309 c-255 -171 -471 -320 -480 -333 -31 -43
-12 -134 33 -158 11 -5 39 -10 63 -10 40 0 74 21 440 265 219 146 400 265 403
265 3 0 5 -101 5 -225 0 -282 8 -305 110 -305 102 0 110 23 110 305 0 124 2
225 5 225 3 0 184 -119 403 -265 366 -244 400 -265 440 -265 24 0 52 5 63 10
45 24 64 115 33 158 -9 13 -225 162 -480 333 l-464 309 0 235 0 235 883 0
c546 0 895 4 917 10 57 16 126 65 164 117 69 96 66 23 66 1401 l0 1242 29 0
c46 0 153 37 203 70 66 44 115 102 152 179 29 62 31 73 31 181 0 108 -2 119
-31 181 -55 116 -142 192 -262 229 -63 20 -101 20 -2266 20 l-2201 -1 -66 -22z
m4462 -208 c85 -26 148 -110 149 -198 0 -87 -65 -174 -149 -200 -55 -16 -4327
-16 -4382 0 -52 16 -108 64 -130 113 -50 110 7 240 123 283 47 16 4333 18
4389 2z m-271 -1846 c0 -804 -4 -1231 -10 -1255 -6 -20 -22 -46 -37 -58 -26
-20 -27 -20 -1873 -20 -1846 0 -1847 0 -1873 20 -15 12 -31 38 -37 58 -6 24
-10 451 -10 1255 l0 1217 1920 0 1920 0 0 -1217z"/>
<path d="M3677 3619 c-10 -6 -198 -235 -418 -510 -219 -274 -401 -499 -404
-499 -3 0 -133 86 -290 190 -321 213 -327 216 -401 161 -21 -16 -229 -220
-461 -453 l-423 -424 0 -53 c0 -45 4 -57 29 -82 25 -25 37 -29 82 -29 l53 0
407 406 406 406 288 -192 c168 -112 300 -194 319 -197 17 -2 43 0 58 6 18 7
174 194 473 567 437 546 445 557 445 601 0 24 -5 53 -10 64 -22 41 -110 63
-153 38z"/>
</g>
</svg>
