<?xml version="1.0" standalone="no"?>
<!DOCTYPE svg PUBLIC "-//W3C//DTD SVG 20010904//EN"
 "http://www.w3.org/TR/2001/REC-SVG-20010904/DTD/svg10.dtd">
<svg version="1.0" xmlns="http://www.w3.org/2000/svg"
 width="512.000000pt" height="512.000000pt" viewBox="0 0 512.000000 512.000000"
 preserveAspectRatio="xMidYMid meet">

<g transform="translate(0.000000,512.000000) scale(0.100000,-0.100000)"
fill="#000000" stroke="none">
<path d="M240 5027 c-49 -16 -133 -102 -148 -153 -17 -59 -17 -1049 0 -1108
16 -55 99 -138 154 -154 30 -9 158 -12 447 -12 l406 0 248 -149 248 -149 3
149 3 149 336 0 c234 0 348 4 377 12 55 16 138 99 154 154 17 58 17 1049 0
1106 -6 22 -31 62 -55 88 -77 85 -2 80 -1137 79 -699 -1 -1012 -4 -1036 -12z
m2055 -172 l25 -24 0 -511 0 -511 -25 -24 -24 -25 -416 0 -415 0 0 -90 0 -89
-149 89 -149 90 -426 0 -427 0 -24 25 -25 24 0 511 0 511 25 24 24 25 991 0
991 0 24 -25z"/>
<path d="M560 4547 c-19 -6 -58 -34 -85 -62 -71 -70 -91 -145 -63 -239 16 -55
99 -138 154 -154 94 -28 169 -8 239 63 98 97 101 222 8 325 -65 72 -158 97
-253 67z m135 -172 c50 -49 15 -135 -55 -135 -41 0 -80 39 -80 80 0 41 39 80
80 80 19 0 40 -9 55 -25z"/>
<path d="M1200 4547 c-19 -6 -58 -34 -85 -62 -71 -70 -91 -145 -63 -239 16
-55 99 -138 154 -154 94 -28 169 -8 239 63 98 97 101 222 8 325 -65 72 -158
97 -253 67z m135 -172 c50 -49 15 -135 -55 -135 -41 0 -80 39 -80 80 0 41 39
80 80 80 19 0 40 -9 55 -25z"/>
<path d="M1840 4547 c-49 -16 -133 -102 -148 -153 -28 -94 -8 -169 63 -239 51
-52 102 -75 165 -75 63 0 114 23 165 75 98 97 101 222 8 325 -65 72 -158 97
-253 67z m135 -172 c50 -49 15 -135 -55 -135 -41 0 -80 39 -80 80 0 41 39 80
80 80 19 0 40 -9 55 -25z"/>
<path d="M2800 4387 c-49 -16 -133 -102 -148 -153 -17 -59 -17 -1209 0 -1268
16 -55 99 -138 154 -154 23 -7 85 -12 138 -12 l96 0 0 -185 0 -185 370 185
370 185 526 0 c384 0 538 3 568 12 55 16 138 99 154 154 17 58 17 1209 0 1266
-6 22 -31 62 -55 88 -77 85 -2 80 -1137 79 -699 -1 -1012 -4 -1036 -12z m2055
-172 l25 -24 0 -591 0 -591 -25 -24 -24 -25 -546 0 -545 0 -270 -135 -270
-135 0 135 0 135 -175 0 c-173 0 -176 0 -200 25 l-25 24 0 591 0 591 25 24 24
25 991 0 991 0 24 -25z"/>
<path d="M3920 3680 l0 -400 -80 0 -80 0 0 240 0 240 -80 0 -80 0 0 -240 0
-240 -80 0 -80 0 0 160 0 160 -80 0 -80 0 0 -160 0 -160 -80 0 -80 0 0 -80 0
-80 800 0 800 0 0 480 0 480 -80 0 -80 0 0 -400 0 -400 -80 0 -80 0 0 320 0
320 -80 0 -80 0 0 -320 0 -320 -80 0 -80 0 0 400 0 400 -80 0 -80 0 0 -400z"/>
<path d="M1297 3113 c-2 -5 -20 -70 -38 -147 -27 -110 -38 -140 -54 -147 -11
-5 -61 -26 -112 -47 l-92 -39 -123 73 c-68 41 -128 74 -133 74 -13 0 -425
-412 -425 -425 0 -6 33 -65 74 -133 l74 -123 -40 -92 c-22 -51 -43 -101 -47
-112 -6 -15 -38 -27 -152 -55 l-144 -36 0 -304 0 -304 144 -36 c114 -28 146
-40 152 -55 4 -11 25 -61 47 -112 l40 -92 -74 -123 c-41 -68 -74 -127 -74
-133 0 -13 412 -425 425 -425 5 0 65 33 133 74 l123 73 92 -39 c51 -21 101
-42 112 -47 15 -6 27 -38 55 -152 l36 -144 304 0 304 0 36 144 36 145 79 31
c44 17 94 39 111 48 l31 16 124 -75 c68 -40 129 -74 134 -74 13 0 425 412 425
425 0 6 -33 65 -74 133 l-73 123 39 92 c21 51 42 101 47 112 6 15 38 27 152
55 l144 36 0 304 0 304 -144 36 c-114 28 -146 40 -152 55 -5 11 -26 61 -47
112 l-39 92 73 123 c41 68 74 128 74 133 0 13 -412 425 -425 425 -6 0 -66 -34
-134 -74 l-124 -75 -31 16 c-17 9 -67 31 -111 48 l-79 31 -36 145 -36 144
-301 3 c-166 1 -304 -1 -306 -5z m514 -285 l34 -133 95 -31 c53 -17 132 -50
178 -73 l82 -43 119 70 119 69 125 -126 125 -126 -70 -118 -70 -117 43 -82
c23 -46 56 -125 73 -177 l31 -94 133 -35 132 -35 0 -177 0 -177 -132 -35 -133
-35 -31 -94 c-17 -52 -50 -131 -73 -177 l-43 -82 70 -117 70 -118 -125 -126
-125 -126 -119 69 -119 70 -82 -43 c-46 -23 -125 -56 -178 -73 l-95 -31 -34
-133 -34 -132 -177 0 -177 0 -34 132 -34 133 -95 31 c-53 17 -133 50 -178 74
l-82 42 -98 -58 c-53 -31 -106 -63 -117 -70 -19 -13 -30 -4 -147 114 l-127
127 71 117 70 118 -42 82 c-24 45 -57 125 -74 178 l-31 95 -133 34 -132 34 0
177 0 177 132 34 133 34 31 95 c17 53 50 133 74 178 l42 82 -70 118 -71 117
127 127 c117 118 128 127 147 114 11 -7 64 -39 117 -70 l98 -58 82 42 c45 24
125 57 177 74 l95 31 34 133 35 132 177 0 177 0 34 -132z"/>
<path d="M1433 2545 c-201 -36 -365 -124 -513 -274 -129 -130 -212 -278 -257
-457 -24 -95 -24 -333 0 -428 45 -179 128 -327 257 -457 177 -180 385 -273
635 -286 277 -14 519 81 720 282 137 137 216 276 262 461 24 95 24 333 0 428
-25 99 -72 210 -125 296 -62 102 -206 243 -311 308 -196 120 -445 168 -668
127z m357 -168 c209 -57 367 -171 481 -345 88 -134 124 -258 124 -432 0 -226
-75 -408 -231 -564 -310 -310 -812 -312 -1123 -5 -161 159 -236 340 -236 569
0 174 36 297 125 434 118 180 303 306 520 352 80 17 262 12 340 -9z"/>
<path d="M1481 2064 c-253 -68 -410 -331 -346 -579 67 -256 329 -415 580 -350
256 67 415 329 350 578 -67 259 -333 419 -584 351z m270 -185 c67 -36 98 -68
137 -143 22 -43 26 -64 26 -136 1 -78 -2 -90 -33 -148 -38 -70 -70 -100 -145
-140 -43 -22 -64 -26 -136 -26 -72 0 -93 4 -136 26 -75 40 -107 70 -145 140
-31 58 -34 70 -33 148 0 100 24 160 89 225 100 100 249 121 376 54z"/>
<path d="M4005 1825 c-86 -16 -152 -38 -230 -76 l-60 -30 -232 27 c-128 15
-235 25 -239 22 -3 -3 29 -87 70 -185 42 -98 76 -183 76 -187 0 -5 -11 -32
-24 -60 -158 -334 -91 -729 169 -992 341 -346 895 -350 1241 -9 346 341 350
896 9 1241 -204 207 -499 301 -780 249z m370 -179 c113 -36 198 -89 290 -181
131 -131 199 -277 212 -454 10 -151 -33 -322 -112 -439 -36 -53 -55 -59 -55
-18 0 39 -49 122 -100 170 -27 25 -82 62 -122 82 l-74 36 31 61 c30 61 30 63
30 222 l0 160 -36 65 c-107 194 -359 227 -508 65 -76 -83 -86 -116 -86 -300 0
-160 0 -160 31 -216 l31 -56 -74 -37 c-41 -20 -96 -57 -123 -82 -51 -48 -100
-131 -100 -170 0 -41 -19 -35 -55 18 -78 117 -122 288 -112 438 8 108 27 172
83 286 l46 91 -40 94 c-48 112 -54 107 108 85 l105 -14 51 29 c66 37 172 77
237 89 90 16 252 5 342 -24z m-127 -313 c58 -43 67 -66 70 -185 5 -140 0 -166
-43 -215 -33 -39 -35 -46 -35 -112 l0 -71 129 -64 c76 -39 138 -77 151 -93
l22 -28 -191 -3 c-105 -1 -277 -1 -382 0 l-191 3 22 28 c13 16 75 54 151 93
l129 64 0 73 c0 65 -3 76 -24 96 -45 43 -56 80 -56 198 0 96 3 116 23 154 32
60 86 91 150 86 27 -2 60 -13 75 -24z m327 -959 c-42 -35 -159 -90 -235 -111
-88 -24 -272 -24 -360 0 -76 21 -193 76 -235 111 l-30 25 445 0 445 0 -30 -25z"/>
</g>
</svg>
